# xmcd
#
# Track frame offsets:
#	150
#	18083
#	34165
#	55789
#	66845
#	81014
#	97119
#	118410
#	131461
#	153924
#	166706
#	179418
#	198744
#	211093
#	223836
#	236309
#
# Disc length: 3542 seconds
#
# Revision: 1
# Processed by: cddbd v1.5.2PL0 Copyright (c) Steve Scherf et al.
# Submitted via: audiograbber 1.83.01
#
DISCID=d90dd410
DTITLE=Various Artist - The Blues At Christmas: The Very Best Of The Blues - C
DTITLE=D 1
DYEAR=1993
DGENRE=Blues
TTITLE0=Sherman Robertson - I'm Your Man
TTITLE1=BB King - It's My Own Fault Baby
TTITLE2=Larry Garner - Thought I Had The Blues
TTITLE3=Baby Charles Brown - Merry Christmas Baby
TTITLE4=Albert Collins - Ice Pick
TTITLE5=John Lee Hooker - My First Wife Left Me
TTITLE6=Magic Sam - I Feel So Good
TTITLE7=Elmore James - Dust My Broom
TTITLE8=Fred McDowell - Some Day Baby
TTITLE9=Rory Black - Rolling Log
TTITLE10=Robert Johnson - Come On In My Kitchen
TTITLE11=Professor Long Hair - Mess Around
TTITLE12=Memphis Minnie - Nothin' In Ramblin
TTITLE13=T-Bone Walker - Stormy Monday Blue
TTITLE14=Lightin' Slim - Wintertime Done Rolled By
TTITLE15=Lonnie Brooks - Two Headed Man
EXTD=
EXTT0=
EXTT1=
EXTT2=
EXTT3=
EXTT4=
EXTT5=
EXTT6=
EXTT7=
EXTT8=
EXTT9=
EXTT10=
EXTT11=
EXTT12=
EXTT13=
EXTT14=
EXTT15=
PLAYORDER=
